<?xml version="1.0" encoding="UTF-8" standalone="no"?>
<!-- Created with Inkscape (http://www.inkscape.org/) -->

<svg
   xmlns:dc="http://purl.org/dc/elements/1.1/"
   xmlns:cc="http://creativecommons.org/ns#"
   xmlns:rdf="http://www.w3.org/1999/02/22-rdf-syntax-ns#"
   xmlns:svg="http://www.w3.org/2000/svg"
   xmlns="http://www.w3.org/2000/svg"
   xmlns:sodipodi="http://sodipodi.sourceforge.net/DTD/sodipodi-0.dtd"
   xmlns:inkscape="http://www.inkscape.org/namespaces/inkscape"
   width="36.902252mm"
   height="36.902252mm"
   viewBox="0 0 36.902252 36.902252"
   version="1.1"
   id="svg8"
   inkscape:version="0.92.2 (5c3e80d, 2017-08-06)"
   sodipodi:docname="logo-svg.svg">
  <defs
     id="defs2" />
  <sodipodi:namedview
     id="base"
     pagecolor="#ffffff"
     bordercolor="#666666"
     borderopacity="1.0"
     inkscape:pageopacity="0.0"
     inkscape:pageshadow="2"
     inkscape:zoom="5.4777596"
     inkscape:cx="69.73654"
     inkscape:cy="69.73654"
     inkscape:document-units="mm"
     inkscape:current-layer="layer1"
     showgrid="false"
     fit-margin-top="0"
     fit-margin-left="0"
     fit-margin-right="0"
     fit-margin-bottom="0"
     inkscape:window-width="1280"
     inkscape:window-height="961"
     inkscape:window-x="-8"
     inkscape:window-y="-8"
     inkscape:window-maximized="1"
     inkscape:snap-global="false" />
  <metadata
     id="metadata5">
    <rdf:RDF>
      <cc:Work
         rdf:about="">
        <dc:format>image/svg+xml</dc:format>
        <dc:type
           rdf:resource="http://purl.org/dc/dcmitype/StillImage" />
        <dc:title></dc:title>
      </cc:Work>
    </rdf:RDF>
  </metadata>
  <g
     inkscape:label="Layer 1"
     inkscape:groupmode="layer"
     id="layer1"
     transform="translate(-42.351482,-53.601475)">
    <g
       id="g1131"
       transform="translate(37.435631,-1.9073486e-6)">
      <rect
         style="opacity:1;fill:#f18431;fill-opacity:1;fill-rule:evenodd;stroke:none;stroke-width:0.31042424;stroke-miterlimit:4;stroke-dasharray:none;stroke-dashoffset:0;stroke-opacity:1"
         id="rect1065"
         width="36.902248"
         height="36.902248"
         x="4.915853"
         y="53.601479" />
      <rect
         y="56.349548"
         x="7.5804229"
         height="31.393034"
         width="31.573107"
         id="rect1063"
         style="opacity:1;fill:#ffffff;fill-opacity:1;fill-rule:evenodd;stroke:none;stroke-width:0.26483664;stroke-miterlimit:4;stroke-dasharray:none;stroke-dashoffset:0;stroke-opacity:1" />
      <path
         inkscape:connector-curvature="0"
         d="m 36.716778,83.462644 v -0.565626 h 0.09752 0.09752 v 0.565626 0.565627 h -0.09752 -0.09752 z m 0,0.838688 c 0,-0.09882 0.01517,-0.117026 0.09752,-0.117026 0.08235,0 0.09752,0.0182 0.09752,0.117026 0,0.09882 -0.01517,0.117026 -0.09752,0.117026 -0.08235,0 -0.09752,-0.0182 -0.09752,-0.117026 z M 36.014621,83.75521 v -0.66314 h -0.156035 c -0.140432,0 -0.156035,-0.0098 -0.156035,-0.09752 v -0.09752 h 0.390087 0.390087 v 0.09752 c 0,0.08545 -0.0169,0.09752 -0.13653,0.09752 h -0.136531 v 0.663148 0.663148 h -0.09752 -0.09752 z m -4.642038,-0.09752 v -0.76067 h 0.166969 0.16697 l 0.212581,0.582664 c 0.11692,0.320466 0.218927,0.576319 0.226683,0.568563 0.0078,-0.0078 0.106064,-0.265566 0.218461,-0.572912 l 0.204361,-0.558811 0.162657,-0.01199 0.162658,-0.01199 v 0.762913 0.762913 h -0.09752 -0.09752 l -0.0023,-0.653396 -0.0023,-0.653396 -0.241552,0.654557 c -0.313312,0.849009 -0.312035,0.848984 -0.61826,0.01227 -0.124894,-0.341255 -0.2369,-0.630285 -0.248903,-0.642287 -0.012,-0.012 -0.01658,0.271618 -0.01018,0.630269 l 0.01165,0.652091 -0.107274,-3.9e-5 -0.107275,-6.5e-5 z m -3.08169,0 v -0.76067 h 0.09752 c 0.09323,0 0.09752,0.01033 0.09752,0.235054 v 0.235054 l 0.115089,-0.05951 c 0.219701,-0.113611 0.490324,-0.04172 0.579473,0.153944 0.02707,0.05941 0.0466,0.281367 0.0466,0.529543 v 0.42726 h -0.09752 -0.09752 v -0.400912 c 0,-0.471306 -0.04479,-0.574306 -0.249723,-0.574306 -0.222641,0 -0.274878,0.102535 -0.290197,0.569617 -0.01308,0.398867 -0.01486,0.405601 -0.107274,0.405601 h -0.09397 z m -0.507113,0.273061 c 0,-0.461603 -0.0042,-0.487609 -0.07802,-0.487609 -0.05721,0 -0.07802,-0.02601 -0.07802,-0.09752 0,-0.07152 0.0208,-0.09752 0.07802,-0.09752 0.06646,0 0.07802,-0.02601 0.07802,-0.17554 0,-0.161236 0.0079,-0.175539 0.09752,-0.175539 0.08958,0 0.09752,0.0143 0.09752,0.175539 0,0.149534 0.01156,0.17554 0.07802,0.17554 0.05721,0 0.07802,0.026 0.07802,0.09752 0,0.07152 -0.0208,0.09752 -0.07802,0.09752 -0.07386,0 -0.07802,0.02601 -0.07802,0.487609 V 84.41836 H 27.8813 27.78378 Z m -2.881186,-0.05115 c -0.110277,-0.298515 -0.200503,-0.562723 -0.200503,-0.587129 0,-0.02441 0.0395,-0.04434 0.08777,-0.0443 0.07596,7.8e-5 0.105557,0.05124 0.219965,0.380336 0.07271,0.209144 0.145153,0.39478 0.160991,0.412525 0.01584,0.01774 0.09612,-0.153407 0.178411,-0.380335 0.130641,-0.360278 0.160929,-0.412598 0.238848,-0.412598 0.04908,0 0.08923,0.01384 0.08923,0.03076 0,0.01692 -0.09513,0.275841 -0.211391,0.575379 -0.285703,0.736068 -0.300529,0.736736 -0.563324,0.02536 z m -8.86044,-0.221911 v -0.76067 h 0.09752 0.09752 v 0.76067 0.76067 h -0.09752 -0.09752 z m -2.457549,0 v -0.76067 h 0.09752 c 0.09329,0 0.09752,0.01026 0.09752,0.236264 v 0.236265 l 0.0867,-0.06073 c 0.128742,-0.09017 0.357926,-0.07723 0.478796,0.02705 0.127487,0.109983 0.173553,0.305371 0.174741,0.741166 9.13e-4,0.33401 -0.0011,0.341326 -0.09217,0.341326 -0.09121,0 -0.0934,-0.0083 -0.108144,-0.406457 -0.01688,-0.456008 -0.07098,-0.568761 -0.272909,-0.568761 -0.216518,0 -0.267016,0.106971 -0.267016,0.565627 v 0.409591 h -0.09752 -0.09752 z m -3.335762,0.711909 c -0.0097,-0.02682 -0.09749,-0.320846 -0.195165,-0.653396 -0.09768,-0.332549 -0.193628,-0.652908 -0.213227,-0.711909 -0.03323,-0.100045 -0.02824,-0.107274 0.07408,-0.107274 0.108263,0 0.111714,0.0075 0.261279,0.565577 0.08336,0.311067 0.160649,0.565599 0.171747,0.565626 0.0111,2.8e-5 0.07981,-0.254482 0.152685,-0.565577 0.119233,-0.508974 0.1408,-0.565626 0.215335,-0.565626 0.07411,0 0.09654,0.05649 0.213002,0.53637 0.0716,0.295003 0.141831,0.549335 0.156079,0.565182 0.01425,0.01585 0.09512,-0.225519 0.17972,-0.53637 0.14995,-0.550983 0.156474,-0.565182 0.2597,-0.565182 h 0.105887 l -0.05497,0.185291 c -0.03023,0.101911 -0.130396,0.439824 -0.22258,0.750918 -0.159842,0.539424 -0.172559,0.566199 -0.274499,0.57797 -0.07386,0.0085 -0.106892,-0.0055 -0.106892,-0.0453 0,-0.03171 -0.0552,-0.291356 -0.122668,-0.577001 -0.08269,-0.3501 -0.131385,-0.494245 -0.149415,-0.442306 -0.01471,0.04238 -0.07736,0.300861 -0.139217,0.57441 -0.104415,0.461744 -0.118945,0.497361 -0.202887,0.497361 -0.04973,0 -0.09833,-0.02194 -0.10799,-0.04876 z m 24.766308,0.03218 c -0.143896,-0.06318 -0.24881,-0.199662 -0.24881,-0.323678 0,-0.129199 0.13853,-0.116618 0.202945,0.01843 0.0708,0.148444 0.306097,0.173402 0.397984,0.04221 0.135082,-0.192856 0.0382,-0.370648 -0.24883,-0.456644 -0.204169,-0.06117 -0.31309,-0.205373 -0.31309,-0.414506 0,-0.289576 0.215476,-0.454142 0.509951,-0.389464 0.115849,0.02544 0.269741,0.208465 0.270078,0.321199 2.34e-4,0.08278 -0.186924,0.05732 -0.214374,-0.02917 -0.03096,-0.09753 -0.180568,-0.138062 -0.291163,-0.07887 -0.06655,0.03562 -0.08139,0.07433 -0.0719,0.18762 0.01109,0.132389 0.0261,0.147926 0.206999,0.214187 0.255332,0.09353 0.371318,0.212242 0.397408,0.406758 0.0497,0.370557 -0.274946,0.64341 -0.597199,0.501921 z m -0.913096,-0.236392 c 0.185063,-0.0957 0.289583,-0.279107 0.291778,-0.511999 0.0043,-0.457769 -0.479306,-0.737843 -0.835775,-0.484014 -0.319603,0.227577 -0.309495,0.760539 0.01852,0.976407 0.139049,0.09151 0.369786,0.100119 0.52548,0.01961 z m -0.481117,0.236601 c -0.319776,-0.117741 -0.504511,-0.38771 -0.509315,-0.744303 -0.0092,-0.686 0.737711,-1.044919 1.245941,-0.598688 0.27546,0.241858 0.332601,0.7273 0.122906,1.04417 -0.179971,0.271954 -0.567032,0.406519 -0.859532,0.298821 z m -3.262582,-0.716119 c 0,-0.06709 -0.130809,-0.210895 -0.224104,-0.246365 -0.171453,-0.06519 -0.478053,0.09282 -0.478053,0.246365 0,0.01668 0.157985,0.03033 0.351078,0.03033 0.193093,0 0.351079,-0.01365 0.351079,-0.03033 z m -0.533136,0.729903 c -0.153653,-0.04599 -0.308474,-0.225583 -0.3692,-0.428271 -0.124933,-0.416989 0.277536,-0.847705 0.686577,-0.734764 0.192311,0.0531 0.362919,0.210688 0.409444,0.378199 0.08029,0.289084 0.09369,0.280306 -0.427738,0.280306 -0.305314,0 -0.468104,0.01446 -0.468104,0.04157 0,0.09432 0.09238,0.202461 0.217687,0.254818 0.115071,0.04808 0.151489,0.04817 0.26516,6.79e-4 0.07247,-0.03028 0.143724,-0.0744 0.158337,-0.09804 0.01461,-0.02364 0.07939,-0.04299 0.143949,-0.04299 h 0.11738 l -0.08445,0.118603 c -0.154814,0.217416 -0.400266,0.304356 -0.649039,0.229892 z m -3.133684,-0.751287 c 0,-0.06675 -0.151261,-0.20503 -0.260446,-0.238089 -0.153951,-0.04661 -0.441711,0.127806 -0.441711,0.267733 0,0.01214 0.157985,0.02207 0.351078,0.02207 0.265547,0 0.351079,-0.0126 0.351079,-0.05171 z m -0.585725,0.705109 c -0.215667,-0.109315 -0.326479,-0.291367 -0.326479,-0.53637 0,-0.734313 1.037226,-0.811453 1.134745,-0.08439 l 0.02178,0.16241 h -0.473241 c -0.30895,0 -0.473241,0.01443 -0.473241,0.04157 0,0.09494 0.09276,0.202621 0.220551,0.256015 0.152017,0.06352 0.265162,0.04291 0.389773,-0.071 0.05233,-0.04784 0.124683,-0.07174 0.193033,-0.06378 l 0.109325,0.01274 -0.127976,0.145335 c -0.111147,0.126224 -0.309184,0.224249 -0.454619,0.22503 -0.02227,1.17e-4 -0.118417,-0.03928 -0.213655,-0.08755 z m -1.862073,-0.263827 c 0.122263,-0.13419 0.138724,-0.293618 0.04836,-0.468367 -0.07203,-0.139286 -0.168088,-0.194263 -0.339431,-0.194263 -0.427883,0 -0.51491,0.634566 -0.108766,0.793082 0.113959,0.04448 0.293967,-0.01425 0.399839,-0.130452 z m -0.431644,0.30976 c -0.46212,-0.0978 -0.586014,-0.741007 -0.204559,-1.061981 0.101246,-0.08519 0.164536,-0.105452 0.329423,-0.105452 0.119068,0 0.235646,0.02386 0.27982,0.05727 0.09745,0.07371 0.134234,0.07405 0.134234,0.0012 0,-0.03641 0.03684,-0.05851 0.09752,-0.05851 h 0.09752 v 0.58513 0.585131 h -0.09752 c -0.06068,0 -0.09752,-0.02211 -0.09752,-0.05851 0,-0.06866 -0.04515,-0.07578 -0.104455,-0.01647 -0.06495,0.06495 -0.291063,0.102504 -0.434463,0.07216 z m -1.040935,0.0058 c -0.112292,-0.04717 -0.205226,-0.163417 -0.220674,-0.276033 -0.01933,-0.140901 0.142171,-0.162977 0.177003,-0.02419 0.03907,0.155683 0.258926,0.180273 0.314601,0.03519 0.03973,-0.103539 -0.01434,-0.195426 -0.145449,-0.247163 -0.203052,-0.08013 -0.30102,-0.190398 -0.30102,-0.338821 0,-0.179334 0.05399,-0.267191 0.19422,-0.316077 0.20288,-0.07073 0.429919,0.07121 0.429919,0.268764 0,0.06645 -0.136935,0.03923 -0.205496,-0.04084 -0.07936,-0.09269 -0.157082,-0.09965 -0.223187,-0.02 -0.07414,0.08933 -0.02199,0.163789 0.189914,0.271167 0.200672,0.101688 0.252697,0.183666 0.24686,0.388978 -0.0058,0.204633 -0.269852,0.37752 -0.456691,0.299037 z m -1.599358,0.0068 c -0.29152,-0.0515 -0.370582,-0.215047 -0.370582,-0.766574 0,-0.410961 5.66e-4,-0.413448 0.09407,-0.413448 0.0929,0 0.09424,0.0053 0.107274,0.4278 0.01484,0.480793 0.05334,0.56042 0.270981,0.56042 0.217214,0 0.26884,-0.111945 0.26884,-0.58295 v -0.40527 h 0.09752 0.09752 v 0.58513 0.585131 h -0.09752 c -0.06474,0 -0.09752,-0.0217 -0.09752,-0.06456 0,-0.05798 -0.007,-0.05854 -0.06826,-0.0055 -0.08009,0.06929 -0.193076,0.09912 -0.302318,0.07982 z m -1.003117,-0.207723 c 0.157433,-0.05488 0.242447,-0.190643 0.242447,-0.387169 0,-0.191756 -0.08441,-0.332075 -0.230364,-0.382956 -0.364065,-0.126914 -0.669569,0.326629 -0.427396,0.634503 0.07156,0.09097 0.188419,0.1663 0.271604,0.175077 0.01289,0.0014 0.07756,-0.0164 0.143709,-0.03946 z m -0.365164,0.158199 c -0.307243,-0.152086 -0.428119,-0.582647 -0.240828,-0.857834 0.136191,-0.200107 0.276689,-0.285667 0.46909,-0.285667 0.33609,0 0.574393,0.242223 0.574393,0.583842 0,0.262106 -0.102755,0.442613 -0.313469,0.550661 -0.210563,0.107971 -0.286422,0.109366 -0.489186,0.009 z m -4.174589,-0.711155 c -0.116863,-0.205422 -0.282062,-0.284501 -0.466897,-0.2235 -0.107945,0.03562 -0.251133,0.178956 -0.251133,0.251385 0,0.01148 0.167799,0.02088 0.372886,0.02088 0.287096,0 0.366502,-0.01122 0.345144,-0.04876 z m -0.585223,0.716992 c -0.216194,-0.09999 -0.32785,-0.287712 -0.32785,-0.551205 0,-0.367314 0.218323,-0.591632 0.575823,-0.591632 0.280313,0 0.55543,0.266923 0.55543,0.538888 v 0.130762 h -0.468105 c -0.29667,0 -0.468105,0.01479 -0.468105,0.04038 0,0.08993 0.131003,0.231242 0.251133,0.270889 0.141081,0.04656 0.28378,0.01079 0.369634,-0.09266 0.02856,-0.03442 0.103439,-0.06258 0.16639,-0.06258 h 0.114455 l -0.06601,0.111739 c -0.137959,0.233545 -0.446796,0.323811 -0.702799,0.205413 z m -2.507353,-0.736933 c -0.05155,-0.09632 -0.165078,-0.190426 -0.267286,-0.221558 -0.11677,-0.03557 -0.339858,0.07446 -0.394607,0.194618 l -0.04358,0.09564 h 0.371119 c 0.342257,0 0.368259,-0.0053 0.334351,-0.0687 z m -0.522221,0.754564 c -0.188353,-0.06779 -0.241779,-0.113881 -0.317859,-0.274208 -0.201169,-0.423931 0.06461,-0.88626 0.509479,-0.88626 0.28463,0 0.559668,0.264826 0.559668,0.538888 v 0.130762 h -0.468105 c -0.257458,0 -0.468105,0.008 -0.468105,0.01767 0,0.08277 0.112393,0.223806 0.218455,0.274136 0.148588,0.07051 0.29028,0.04822 0.389355,-0.06126 0.03709,-0.04098 0.118364,-0.07451 0.180616,-0.07451 h 0.113186 l -0.06601,0.111739 c -0.126389,0.213959 -0.407856,0.310442 -0.650684,0.223044 z m 6.602596,0.36557 c 0,-0.02543 0.02814,-0.127587 0.06254,-0.227013 l 0.06254,-0.180775 -0.199067,-0.539714 c -0.109487,-0.296843 -0.199067,-0.548153 -0.199067,-0.558466 0,-0.01031 0.04596,-0.0132 0.102131,-0.0064 0.09087,0.01098 0.116752,0.0532 0.234739,0.382926 0.07293,0.20382 0.142683,0.396914 0.154996,0.429096 0.01301,0.034 0.09201,-0.121222 0.188599,-0.370583 0.148908,-0.384427 0.176962,-0.430381 0.269491,-0.441439 0.0568,-0.0068 0.103261,-0.0068 0.103238,0 -2.3e-5,0.0068 -0.136066,0.354644 -0.302318,0.773013 -0.257887,0.648966 -0.315165,0.762501 -0.390045,0.773135 -0.04867,0.0069 -0.08777,-0.0081 -0.08777,-0.03377 z m -1.273092,-0.666836 c 0.09802,-0.107664 0.109251,-0.14459 0.09161,-0.301127 -0.02506,-0.222308 -0.162129,-0.35653 -0.364099,-0.35653 -0.177742,0 -0.273198,0.0536 -0.345935,0.194263 -0.07927,0.153297 -0.07396,0.268196 0.01949,0.421473 0.144393,0.236827 0.40489,0.255061 0.598934,0.04192 z m -0.846382,0.681642 c -0.0143,-0.0143 -0.02601,-0.365381 -0.02601,-0.780174 v -0.754168 h 0.09752 c 0.07127,0 0.09752,0.02084 0.09752,0.07744 0,0.07722 3.51e-4,0.07722 0.126778,1.56e-4 0.256313,-0.156277 0.607338,-0.06296 0.770633,0.204866 0.16047,0.263192 0.06346,0.674362 -0.194897,0.826042 -0.157402,0.09241 -0.428207,0.09711 -0.561536,0.0098 -0.05457,-0.03577 -0.108619,-0.06503 -0.120101,-0.06503 -0.01148,0 -0.02088,0.114101 -0.02088,0.253557 0,0.219867 -0.0095,0.253556 -0.07152,0.253556 -0.03933,0 -0.08322,-0.0117 -0.09752,-0.02601 z m 6.432846,0.458316 c -0.06537,-0.07223 -0.06139,-0.07759 0.115671,-0.155916 0.716679,-0.317022 1.860225,-0.459946 2.573023,-0.321586 0.275641,0.0535 0.807095,0.206814 0.786908,0.227001 -0.0077,0.0077 -0.152822,-0.01665 -0.322453,-0.05416 -0.229403,-0.05072 -0.483315,-0.06806 -0.991073,-0.06769 -0.766734,5.65e-4 -1.086216,0.05849 -1.719065,0.311689 -0.186211,0.0745 -0.346834,0.135458 -0.35694,0.135458 -0.01011,0 -0.04884,-0.03366 -0.08607,-0.0748 z"
         style="fill:#635b57;fill-opacity:1;stroke-width:0.03900872"
         id="path932" />
      <rect
         y="79.098991"
         x="9.831358"
         height="3.2413456"
         width="27.071238"
         id="rect1067"
         style="opacity:1;fill:#f18431;fill-opacity:1;fill-rule:evenodd;stroke:none;stroke-width:0.28599411;stroke-miterlimit:4;stroke-dasharray:none;stroke-dashoffset:0;stroke-opacity:1" />
      <path
         inkscape:connector-curvature="0"
         d="m 24.088636,79.932363 c 0,-0.147366 0.0065,-0.156035 0.117027,-0.156035 0.110524,0 0.117026,0.0087 0.117026,0.156035 0,0.147366 -0.0065,0.156035 -0.117026,0.156035 -0.110525,0 -0.117027,-0.0087 -0.117027,-0.156035 z m 10.298303,0.916705 v -0.643644 h 0.117027 c 0.06436,0 0.117026,0.01801 0.117026,0.04001 0,0.0227 0.05109,0.01359 0.118113,-0.02107 0.142461,-0.07367 0.353632,-0.04466 0.449992,0.06181 0.06455,0.07133 0.06834,0.07126 0.162542,-0.0028 0.142048,-0.111734 0.330184,-0.135494 0.486297,-0.06141 0.226318,0.107395 0.265387,0.22214 0.265387,0.77944 v 0.491341 h -0.117026 -0.117026 v -0.450373 c 0,-0.426163 -0.0051,-0.455521 -0.09575,-0.546122 -0.115231,-0.115231 -0.178118,-0.119686 -0.299707,-0.02123 -0.08587,0.06953 -0.09296,0.106098 -0.105952,0.546122 l -0.01392,0.471602 h -0.109651 -0.10965 l -0.01302,-0.471636 c -0.01217,-0.440746 -0.01905,-0.476515 -0.10511,-0.546122 -0.115639,-0.09353 -0.168285,-0.09353 -0.283923,0 -0.08606,0.06961 -0.09294,0.105376 -0.10511,0.546122 l -0.01302,0.471636 h -0.113759 -0.11376 z m -0.663148,0 v -0.643644 h 0.117026 c 0.06436,0 0.117026,0.01801 0.117026,0.04001 0,0.02293 0.04912,0.01461 0.115089,-0.0195 0.154773,-0.08004 0.157972,-0.0786 0.157972,0.07075 0,0.101376 -0.0218,0.140204 -0.0983,0.17506 -0.139408,0.06352 -0.174756,0.191639 -0.174756,0.63342 v 0.387548 h -0.117026 -0.117026 z m -1.950436,0.117026 c 0,-0.500612 -0.0039,-0.526618 -0.07802,-0.526618 -0.06068,0 -0.07802,-0.026 -0.07802,-0.117026 0,-0.09102 0.01734,-0.117026 0.07802,-0.117026 0.05783,0 0.07802,-0.02601 0.07802,-0.100522 0,-0.132016 0.196558,-0.328574 0.328573,-0.328574 0.08377,0 0.100523,0.01796 0.100523,0.107776 0,0.07424 -0.02724,0.119758 -0.08754,0.146283 -0.130138,0.05724 -0.138779,0.175037 -0.01284,0.175037 0.08553,0 0.100382,0.01732 0.100382,0.117026 0,0.09882 -0.01517,0.117026 -0.09752,0.117026 h -0.09752 v 0.526618 0.526618 h -0.117026 -0.117026 z m -0.62414,0 c 0,-0.500612 -0.0039,-0.526618 -0.07802,-0.526618 -0.06068,0 -0.07802,-0.026 -0.07802,-0.117026 0,-0.09102 0.01734,-0.117026 0.07802,-0.117026 0.06867,0 0.07802,-0.02601 0.07802,-0.217019 v -0.21702 l 0.126779,0.01222 c 0.123631,0.01192 0.127071,0.01731 0.138569,0.217019 0.01,0.172923 0.02361,0.204796 0.08777,0.204796 0.05842,0 0.07598,0.02705 0.07598,0.117026 0,0.09102 -0.01734,0.117026 -0.07802,0.117026 -0.07416,0 -0.07802,0.02601 -0.07802,0.526618 v 0.526618 h -0.13653 -0.136531 z M 29.15977,80.63452 v -0.858192 h 0.117027 0.117026 v 0.858192 0.858192 H 29.276797 29.15977 Z m -0.500432,-0.142576 c 0.03923,-0.03551 0.07134,-0.1145 0.07134,-0.17554 0,-0.16096 -0.12395,-0.267015 -0.31207,-0.267015 h -0.156035 v 0.253557 0.253557 h 0.162715 c 0.09667,0 0.191672,-0.02621 0.234053,-0.06456 z m -0.669829,0.142576 v -0.858192 h 0.24868 c 0.352814,0 0.481506,0.03403 0.60834,0.160865 0.150817,0.150817 0.187479,0.376272 0.09231,0.567697 -0.09791,0.196948 -0.243525,0.293018 -0.478324,0.315579 l -0.197949,0.01902 v 0.326611 0.326611 h -0.136531 -0.13653 z m -3.432768,0.214548 v -0.643644 h 0.117026 c 0.08289,0 0.117026,0.01883 0.117026,0.06456 0,0.05698 0.0096,0.05584 0.08211,-0.0098 0.114154,-0.103308 0.38538,-0.09948 0.529414,0.0075 0.180004,0.133657 0.206458,0.229105 0.207082,0.747157 l 5.75e-4,0.477857 H 25.49295 25.375924 v -0.439921 c 0,-0.529179 -0.03764,-0.613315 -0.274373,-0.613315 -0.233778,0 -0.28712,0.110481 -0.304957,0.631622 l -0.01443,0.421614 h -0.112711 -0.112711 z m -0.468105,0 v -0.643644 h 0.117027 0.117026 v 0.643644 0.643644 h -0.117026 -0.117027 z m -5.617256,-0.21702 v -0.860663 l 0.126779,0.01222 c 0.126416,0.01219 0.126811,0.0129 0.13825,0.250575 l 0.01147,0.238352 0.164067,-0.05834 c 0.146917,-0.05224 0.17927,-0.05192 0.309496,0.0031 0.250242,0.105733 0.302857,0.244213 0.303026,0.797555 l 1.46e-4,0.477857 H 19.40759 19.290564 v -0.387548 c 0,-0.383633 -0.03956,-0.578027 -0.129219,-0.63504 -0.08675,-0.05516 -0.260666,-0.03085 -0.338886,0.04737 -0.06897,0.06897 -0.07802,0.130029 -0.07802,0.526618 v 0.4486 h -0.13653 -0.136531 z m -5.071134,0.21702 v -0.643644 h 0.117027 c 0.06436,0 0.117026,0.01801 0.117026,0.04001 0,0.02244 0.05348,0.01236 0.121765,-0.02296 0.146943,-0.07599 0.34433,-0.04902 0.443534,0.0606 0.06826,0.07542 0.06979,0.07542 0.165348,2.73e-4 0.138784,-0.109167 0.324076,-0.133651 0.489231,-0.06464 0.215141,0.08989 0.257196,0.212115 0.265169,0.770664 l 0.0069,0.483847 -0.121838,0.01222 -0.121837,0.01222 v -0.452845 c 0,-0.428787 -0.0051,-0.457932 -0.09575,-0.548593 -0.115231,-0.115231 -0.178118,-0.119686 -0.299707,-0.02123 -0.08587,0.06953 -0.09296,0.106098 -0.105952,0.546122 l -0.01392,0.471591 H 14.254324 14.141407 V 81.04233 c 0,-0.426163 -0.0051,-0.455521 -0.09575,-0.546122 -0.115221,-0.115222 -0.178089,-0.119682 -0.299769,-0.02126 -0.08606,0.06961 -0.09294,0.105376 -0.10511,0.546122 l -0.01302,0.471636 h -0.113759 -0.11376 z M 10.630627,80.63452 v -0.858192 h 0.117026 0.117026 v 0.370583 0.370583 h 0.331574 0.331575 v -0.370583 -0.370583 h 0.117026 0.117026 v 0.858192 0.858192 h -0.117026 -0.117026 v -0.351079 -0.351078 h -0.331575 -0.331574 v 0.351078 0.351079 h -0.117026 -0.117026 z m 22.556794,0.506598 c 0.08346,-0.0916 0.107274,-0.156441 0.107274,-0.292047 0,-0.477987 -0.608748,-0.593884 -0.744229,-0.14169 -0.133525,0.445667 0.335246,0.764877 0.636955,0.433737 z m -0.598272,0.301683 c -0.519409,-0.35003 -0.345323,-1.198859 0.259862,-1.267072 0.21366,-0.02408 0.373357,0.03996 0.522121,0.209398 0.295667,0.336745 0.229163,0.801438 -0.151399,1.057899 -0.178831,0.120514 -0.451564,0.120416 -0.630584,-2.34e-4 z m -2.09333,-0.301683 c 0.08346,-0.0916 0.107274,-0.156441 0.107274,-0.292047 0,-0.380393 -0.402663,-0.559052 -0.666149,-0.295566 -0.0918,0.0918 -0.114025,0.147797 -0.114025,0.287305 0,0.406686 0.409475,0.58943 0.6729,0.300308 z m -0.575378,0.317632 c -0.185089,-0.114954 -0.283924,-0.244401 -0.336338,-0.440513 -0.144771,-0.541675 0.440562,-1.049605 0.892212,-0.774229 0.103445,0.06307 0.126778,0.06664 0.126778,0.01936 0,-0.04021 0.04178,-0.05794 0.136531,-0.05794 h 0.13653 v 0.643644 0.643644 h -0.13653 c -0.09475,0 -0.136531,-0.01773 -0.136531,-0.05794 0,-0.04728 -0.02333,-0.04371 -0.126778,0.01936 -0.159659,0.09735 -0.403311,0.09937 -0.555874,0.0046 z m -9.442669,-0.199115 c 0.122963,-0.04675 0.255772,-0.255717 0.255968,-0.402749 3.51e-4,-0.258104 -0.259007,-0.490764 -0.484092,-0.434271 -0.258857,0.06497 -0.387323,0.476438 -0.216368,0.693015 0.131613,0.166736 0.268263,0.211007 0.444492,0.144005 z m -0.449098,0.183391 c -0.365441,-0.246271 -0.44073,-0.716649 -0.166811,-1.042183 0.271658,-0.322847 0.718952,-0.312879 0.974155,0.02171 0.09968,0.130684 0.112416,0.179015 0.112416,0.426519 0,0.245657 -0.01311,0.296319 -0.10929,0.422421 -0.06011,0.07881 -0.160173,0.1696 -0.222363,0.20176 -0.170189,0.08801 -0.432679,0.07452 -0.588107,-0.03023 z m -2.463756,0.02987 c -0.123456,-0.06958 -0.224791,-0.244411 -0.224791,-0.387838 0,-0.08287 0.01818,-0.09946 0.10896,-0.09946 0.08927,0 0.115704,0.02291 0.146282,0.126778 0.03295,0.111914 0.05544,0.128255 0.191803,0.139374 0.181085,0.01476 0.255112,-0.05721 0.255112,-0.248058 0,-0.146943 -0.07172,-0.215003 -0.325124,-0.308537 -0.517124,-0.190874 -0.415564,-0.929467 0.127807,-0.929467 0.183268,0 0.297757,0.08254 0.378241,0.272695 0.07571,0.17888 0.06757,0.206049 -0.06177,0.206049 -0.08687,0 -0.127438,-0.02617 -0.166313,-0.107274 -0.07206,-0.150355 -0.257147,-0.150537 -0.341433,-3.51e-4 -0.07001,0.124764 -0.03078,0.22062 0.115888,0.28315 0.453939,0.19353 0.575634,0.347497 0.527637,0.667561 -0.03936,0.262467 -0.188903,0.411175 -0.43279,0.430372 -0.126333,0.0099 -0.229513,-0.0056 -0.29951,-0.04501 z m -1.27304,-0.82906 c -0.05125,-0.09575 -0.164914,-0.190381 -0.265432,-0.22097 -0.153817,-0.04681 -0.441711,0.127607 -0.441711,0.267603 0,0.01214 0.16738,0.02207 0.371955,0.02207 0.343056,0 0.369099,-0.0053 0.335188,-0.0687 z m -0.66754,0.802414 c -0.52283,-0.355288 -0.35231,-1.201972 0.255879,-1.270524 0.09498,-0.01071 0.223847,0.0024 0.289182,0.02951 0.158609,0.0657 0.338173,0.277303 0.388208,0.45748 0.0819,0.294926 0.100026,0.283879 -0.465759,0.283879 -0.539629,0 -0.56862,0.01185 -0.448479,0.183379 0.07775,0.111007 0.29233,0.180702 0.413604,0.134338 0.05136,-0.01964 0.126828,-0.07283 0.1677,-0.118197 0.08847,-0.09822 0.296271,-0.113976 0.296271,-0.02247 0,0.03301 -0.06774,0.132649 -0.150543,0.221413 -0.137723,0.147647 -0.170112,0.162761 -0.380335,0.177482 -0.193577,0.01355 -0.251215,0.0015 -0.365728,-0.07628 z m -2.760462,-0.305135 c 0.145492,-0.159684 0.149788,-0.411076 0.0099,-0.577362 -0.124027,-0.147396 -0.255241,-0.179976 -0.430287,-0.106837 -0.240978,0.100687 -0.316667,0.442009 -0.150595,0.67911 0.136114,0.19433 0.396478,0.19665 0.571014,0.0051 z m -0.598272,0.301683 c -0.508155,-0.342446 -0.350082,-1.186923 0.236912,-1.265655 0.206944,-0.02776 0.326195,0.0084 0.483386,0.146368 0.357284,0.313699 0.31454,0.847085 -0.08971,1.119512 -0.178831,0.120514 -0.451563,0.120416 -0.630584,-2.34e-4 z m 11.164894,-0.206234 c 0.147086,-0.07606 0.240727,-0.285545 0.207297,-0.463742 -0.07044,-0.375456 -0.567846,-0.469131 -0.738521,-0.139083 -0.113556,0.219593 -0.03863,0.491902 0.165874,0.602865 0.138234,0.07501 0.220246,0.075 0.36535,-4e-5 z m -0.824193,-0.172948 v -0.858192 h 0.117026 c 0.07808,0 0.117026,0.0195 0.117026,0.05859 0,0.04863 0.02476,0.04532 0.145705,-0.0195 0.189125,-0.101365 0.343071,-0.09869 0.557778,0.0097 0.251246,0.126813 0.356865,0.326768 0.33976,0.643224 -0.0146,0.270132 -0.08624,0.399913 -0.30168,0.546542 -0.166117,0.113058 -0.43865,0.117571 -0.614784,0.01018 l -0.126779,-0.0773 v 0.272487 0.272488 h -0.117026 -0.117026 z m -0.53637,0.0775 c 0.262096,-0.287663 0.0035,-0.784563 -0.371021,-0.712967 -0.166569,0.03184 -0.301879,0.219493 -0.301879,0.418652 0,0.400805 0.411778,0.580909 0.6729,0.294315 z m -0.945961,-0.0775 v -0.858192 h 0.13653 c 0.09066,0 0.136531,0.01825 0.136531,0.05431 0,0.0429 0.03041,0.0388 0.144778,-0.0195 0.355707,-0.18135 0.758071,0.02362 0.873229,0.444827 0.0521,0.190581 0.003,0.438753 -0.121397,0.613442 -0.151837,0.213236 -0.518117,0.297902 -0.754787,0.17447 -0.06145,-0.03205 -0.118503,-0.05827 -0.126778,-0.05827 -0.0083,0 -0.01504,0.1141 -0.01504,0.253556 v 0.253557 h -0.136536 -0.13653 z m 5.501506,0.174879 c 0.425504,-0.220036 0.204526,-0.896378 -0.263629,-0.806885 -0.126882,0.02426 -0.278284,0.192513 -0.305956,0.34002 -0.04456,0.23754 0.162408,0.519525 0.384954,0.524476 0.03861,8.59e-4 0.121696,-0.02507 0.184631,-0.05761 z m -0.464642,0.694629 c -0.115907,-0.0571 -0.277244,-0.250676 -0.277654,-0.333138 -3.51e-4,-0.06735 0.211825,-0.02195 0.319038,0.06826 0.198836,0.167311 0.487222,0.109902 0.595641,-0.118574 0.08374,-0.176469 0.07878,-0.182206 -0.07775,-0.08985 -0.106523,0.06285 -0.182052,0.07729 -0.32993,0.06308 -0.348687,-0.0335 -0.585158,-0.304883 -0.585158,-0.671537 0,-0.501479 0.479316,-0.829317 0.895411,-0.612436 0.128579,0.06702 0.157825,0.07154 0.157825,0.02438 0,-0.03865 0.03994,-0.05789 0.120185,-0.05789 h 0.120185 l -0.01291,0.699408 c -0.01176,0.63712 -0.02018,0.709207 -0.09452,0.809431 -0.203171,0.273926 -0.538939,0.362426 -0.830361,0.218861 z"
         style="fill:#000000;stroke-width:0.03900872"
         id="path872" />
      <path
         sodipodi:nodetypes="ccccccscccccccscccccccsscccscccccscccccccsccccccscsccccccscccccccsscccsccccccccsscccccccccccccccccsccsscccscccccccscccccccccscsscssccccscccccssccccsccccsscccccccccccsccccccccccccsscccscsscscsccccccccscc"
         inkscape:connector-curvature="0"
         d="m 24.739626,74.636449 c -0.06847,-0.07566 -0.144166,-0.472037 -0.144627,-0.757359 -2.34e-4,-0.150844 0.01751,-0.196469 0.102488,-0.263309 0.132801,-0.104461 0.219264,-0.102079 0.349121,0.0096 l 0.105176,0.09047 -0.04206,0.40028 c -0.04394,0.418229 -0.112618,0.589045 -0.236814,0.589045 -0.03909,0 -0.09907,-0.03093 -0.133286,-0.06875 z m 10.915586,3.056247 c -0.237322,-0.06617 -0.461036,-0.289924 -0.535219,-0.535311 -0.0359,-0.118757 -0.04971,-0.395684 -0.04569,-0.916515 l 0.0058,-0.746339 -0.189753,-0.01823 c -0.242382,-0.02329 -0.309369,-0.08045 -0.309369,-0.263986 0,-0.179704 0.06432,-0.237652 0.28143,-0.253548 0.09194,-0.0067 0.177228,-0.01388 0.18952,-0.01588 0.01229,-0.002 0.02107,-0.175526 0.0195,-0.385612 -0.0034,-0.459913 0.05554,-0.593623 0.261363,-0.592646 0.226141,0.0011 0.241044,0.03105 0.26241,0.5278 l 0.0195,0.453462 0.247271,0.0064 c 0.208439,0.0054 0.258978,0.02089 0.321822,0.09852 0.185674,0.22936 0.01412,0.434527 -0.363334,0.434527 h -0.232319 l 0.01328,0.783663 c 0.01303,0.768999 0.015,0.785058 0.105371,0.858192 0.0597,0.04832 0.152931,0.07453 0.265082,0.07453 0.296392,0 0.475291,0.27772 0.288053,0.447168 -0.101093,0.09149 -0.365028,0.110594 -0.604683,0.04377 z m -2.723661,0.01488 c -0.219528,-0.05509 -0.370072,-0.143204 -0.579758,-0.339342 -0.325626,-0.304585 -0.329253,-0.634586 -0.007,-0.634586 0.116141,0 0.178144,0.03455 0.344692,0.192062 0.24798,0.23453 0.453664,0.303549 0.711284,0.23868 0.219733,-0.05533 0.350275,-0.140893 0.419657,-0.275063 0.05088,-0.09839 0.04846,-0.108646 -0.03464,-0.146509 -0.04914,-0.02239 -0.280919,-0.07855 -0.515056,-0.124794 -0.234136,-0.04625 -0.513472,-0.111572 -0.620746,-0.145168 -0.785745,-0.246084 -0.749598,-0.975566 0.0697,-1.406716 0.180334,-0.0949 0.245309,-0.107014 0.573938,-0.107014 0.326125,0 0.39428,0.01248 0.568102,0.104056 0.214365,0.112931 0.465204,0.364687 0.528047,0.529977 0.05511,0.144945 0.01169,0.278298 -0.105055,0.322685 -0.162776,0.06189 -0.215969,0.04502 -0.370581,-0.117512 -0.223136,-0.234565 -0.374958,-0.312649 -0.608221,-0.312817 -0.111241,-7.8e-5 -0.251672,0.01852 -0.31207,0.04134 -0.145561,0.055 -0.324361,0.228848 -0.324361,0.315383 0,0.07658 0.04307,0.09126 0.72406,0.24666 0.65321,0.149063 0.725568,0.175145 0.860638,0.310215 0.138641,0.138641 0.19387,0.335292 0.153942,0.54813 -0.09014,0.480464 -0.909851,0.902551 -1.476599,0.760329 z m -1.61589,-1.583518 c 0.03567,-0.03567 -0.07922,-0.29106 -0.179105,-0.398149 -0.320594,-0.343695 -0.988284,-0.343968 -1.300368,-5.3e-4 -0.07665,0.08435 -0.209358,0.313682 -0.209358,0.36179 0,0.0113 0.311582,0.02577 0.692404,0.03215 0.380823,0.0064 0.755307,0.01557 0.832186,0.0204 0.07688,0.0048 0.150788,-0.0022 0.164241,-0.01567 z m -1.210148,1.566166 c -0.269952,-0.07591 -0.46416,-0.20292 -0.683793,-0.447204 -0.372038,-0.413796 -0.464653,-1.002038 -0.235024,-1.492744 0.152683,-0.326277 0.377809,-0.551503 0.707295,-0.707608 0.227752,-0.107905 0.299974,-0.122926 0.59103,-0.122926 0.27753,0 0.367658,0.01691 0.552955,0.103779 0.421513,0.197598 0.705271,0.547775 0.829093,1.023161 0.07043,0.270412 0.04483,0.429501 -0.08563,0.532123 -0.09133,0.07184 -0.161852,0.07682 -1.08713,0.07682 -1.091097,0 -1.08438,-0.0018 -0.887033,0.23277 0.238264,0.283161 0.586762,0.364934 0.995355,0.233554 0.251661,-0.08092 0.288938,-0.08415 0.38053,-0.03299 0.07491,0.04185 0.104633,0.0934 0.113337,0.196591 0.0098,0.115922 -0.0088,0.157196 -0.108486,0.24108 -0.221583,0.18645 -0.728662,0.263079 -1.082499,0.163585 z m -2.329129,-2.449603 c 0.140734,-0.07278 0.212079,-0.211227 0.212079,-0.411557 0,-0.287225 -0.212489,-0.43594 -0.622886,-0.43594 h -0.235306 v 0.473347 0.473346 l 0.26362,-0.01886 c 0.144991,-0.01037 0.317113,-0.04652 0.382493,-0.08033 z m 0.258495,1.850058 c 0.441244,-0.213835 0.456183,-0.878992 0.02478,-1.103347 -0.131179,-0.06822 -0.253343,-0.09144 -0.549054,-0.104347 l -0.380335,-0.0166 v 0.672338 0.672338 l 0.360831,-0.01586 c 0.27198,-0.01196 0.405879,-0.03769 0.543777,-0.10452 z m -1.282393,0.620049 c -0.04687,-0.02006 -0.103921,-0.07141 -0.126778,-0.114123 -0.02766,-0.05168 -0.04156,-0.671214 -0.04156,-1.852329 0,-1.601474 0.0063,-1.780995 0.06475,-1.839427 0.05573,-0.05573 0.144084,-0.06291 0.633892,-0.05155 0.541841,0.01257 0.578082,0.01846 0.755566,0.122788 0.119442,0.07021 0.23822,0.18759 0.330574,0.326685 0.123446,0.185923 0.146299,0.255188 0.159132,0.482301 0.01254,0.221952 -0.0013,0.300811 -0.08499,0.48358 l -0.09998,0.218381 0.177254,0.163387 c 0.278858,0.257042 0.383158,0.492946 0.384066,0.868676 6.36e-4,0.263495 -0.01619,0.346567 -0.108084,0.533702 -0.128388,0.261443 -0.313363,0.434898 -0.611043,0.572987 -0.196246,0.09104 -0.268836,0.101328 -0.781955,0.11088 -0.311094,0.0058 -0.603975,-0.0059 -0.650846,-0.02594 z M 22.846175,77.05736 c 0.764051,-0.357543 1.048852,-1.219642 0.650083,-1.96781 -0.253054,-0.474778 -0.725686,-0.732041 -1.349351,-0.734481 l -0.243805,-9.53e-4 v 1.42859 1.42859 l 0.342002,-0.01635 c 0.279521,-0.01336 0.38933,-0.0385 0.601071,-0.137584 z m -1.386412,0.60966 -0.102783,-0.08085 v -1.802394 c 0,-1.568174 0.0079,-1.813661 0.06072,-1.889092 0.05529,-0.07893 0.09294,-0.0867 0.420367,-0.0867 0.926983,0 1.346474,0.136927 1.783981,0.582314 0.470293,0.478764 0.681817,1.091754 0.581651,1.685605 -0.06663,0.395022 -0.292797,0.825191 -0.575763,1.095095 -0.427027,0.407315 -0.90752,0.574973 -1.651313,0.576189 -0.360466,5.89e-4 -0.427391,-0.0098 -0.516865,-0.08017 z m -4.771527,0.04365 c -0.04687,-0.02003 -0.103921,-0.07136 -0.126779,-0.114067 -0.02764,-0.05165 -0.04156,-0.666325 -0.04156,-1.835611 0,-1.705945 0.0023,-1.760265 0.07802,-1.835974 0.09847,-0.09847 0.237815,-0.09967 0.356509,-0.0031 l 0.09209,0.07495 -0.01214,1.163574 c -0.0067,0.639965 -5.58e-4,1.361055 0.0136,1.602422 0.02251,0.383789 0.03439,0.438848 0.09465,0.438848 0.119873,0 0.274473,0.151994 0.274473,0.269846 0,0.170312 -0.123707,0.251672 -0.402047,0.264421 -0.132878,0.0061 -0.279945,-0.0053 -0.326816,-0.02535 z m -3.19522,-0.04489 c -0.06987,-0.07718 -0.07431,-0.157897 -0.07431,-1.349232 v -1.267136 l 0.09505,-0.07699 c 0.117685,-0.09531 0.26229,-0.06945 0.375471,0.06717 l 0.08044,0.09709 0.231631,-0.107628 c 0.195608,-0.09089 0.283199,-0.107628 0.563206,-0.107628 0.40164,0 0.670816,0.107441 0.969777,0.387083 0.33946,0.317526 0.433758,0.674771 0.434243,1.645113 2.34e-4,0.505978 -0.0095,0.602116 -0.06797,0.671236 -0.102696,0.121366 -0.250568,0.142103 -0.363297,0.05095 -0.09363,-0.07571 -0.09535,-0.08848 -0.11456,-0.85084 -0.01851,-0.734668 -0.02446,-0.782806 -0.117026,-0.947785 -0.141353,-0.251924 -0.374445,-0.402522 -0.653194,-0.422019 -0.190085,-0.01329 -0.257291,0.0015 -0.438384,0.09671 -0.134453,0.07067 -0.25759,0.174555 -0.331574,0.279747 l -0.117693,0.167334 -0.01059,0.708671 c -0.01194,0.798923 -0.01942,0.855705 -0.126934,0.963219 -0.100168,0.100168 -0.24096,0.09803 -0.334288,-0.0051 z m -1.77119,-0.595823 c 0.292627,-0.146354 0.556913,-0.415648 0.689521,-0.702586 0.09693,-0.209746 0.109985,-0.282843 0.108718,-0.608941 -0.0013,-0.325365 -0.01434,-0.395397 -0.107202,-0.573939 -0.212885,-0.40933 -0.529035,-0.663467 -0.96398,-0.774894 -0.643151,-0.164768 -1.315758,0.169732 -1.614078,0.802711 -0.09983,0.211814 -0.119608,0.30172 -0.120153,0.546122 -0.0014,0.64938 0.354103,1.154698 0.966198,1.373179 0.301082,0.107467 0.756795,0.08048 1.040976,-0.06165 z m -1.092245,0.609764 C 10.087738,77.532495 9.631122,77.149339 9.370346,76.623072 9.216508,76.312614 9.20651,76.271506 9.192447,75.891582 c -0.01207,-0.326097 4.33e-4,-0.4529 0.06585,-0.667688 0.188012,-0.617317 0.628676,-1.065438 1.269781,-1.29127 0.366357,-0.12905 0.868293,-0.133932 1.210102,-0.01177 0.887968,0.317359 1.473214,1.282656 1.319989,2.177175 -0.09137,0.533417 -0.468454,1.086637 -0.921734,1.352277 -0.454867,0.26657 -1.041441,0.355874 -1.506854,0.229415 z m 7.546415,0.869605 c -0.05266,-0.05266 -0.09575,-0.116871 -0.09575,-0.142689 0,-0.02582 0.08777,-0.264211 0.195043,-0.529764 0.107274,-0.265553 0.195044,-0.520105 0.195044,-0.565671 0,-0.04557 -0.165948,-0.470631 -0.368774,-0.944588 -0.515032,-1.203517 -0.537221,-1.31418 -0.281763,-1.405226 0.193079,-0.06881 0.326386,0.135278 0.654025,1.001306 0.104397,0.275947 0.215001,0.537682 0.245786,0.581634 0.06872,0.09812 0.05971,0.112674 0.310616,-0.501737 0.343833,-0.841975 0.457924,-1.06375 0.560483,-1.089491 0.129951,-0.03262 0.276962,0.04228 0.305401,0.155589 0.02605,0.103796 -0.119527,0.497524 -0.636872,1.722481 -0.172161,0.407641 -0.393504,0.941628 -0.491872,1.186638 -0.249776,0.622128 -0.381956,0.740931 -0.591369,0.531518 z"
         style="fill:#635b57;fill-opacity:1;stroke-width:0.03900872"
         id="path838" />
      <g
         transform="translate(-37.325083)"
         id="g1061">
        <g
           id="g1038"
           transform="translate(-15.847563)">
          <path
             inkscape:connector-curvature="0"
             id="path828"
             d="m 81.127157,65.593012 c -1.606998,-0.545409 -1.693816,-0.585921 -1.798796,-0.839367 -0.03305,-0.07978 -0.08756,-0.123249 -0.188726,-0.150491 -0.352857,-0.09502 -0.686872,-0.426935 -0.784971,-0.780047 -0.05799,-0.208741 -0.04637,-0.526815 0.02584,-0.707282 0.06012,-0.15025 0.06011,-0.17387 -1.95e-4,-0.342116 -0.03562,-0.0994 -0.06466,-0.233385 -0.06453,-0.29775 1.17e-4,-0.06436 0.228184,-0.784075 0.506786,-1.599357 0.442698,-1.295478 0.522065,-1.496408 0.62963,-1.594 0.105901,-0.09608 0.145446,-0.108668 0.283333,-0.09018 0.205828,0.0276 0.374802,0.203915 0.374802,0.39108 0,0.07122 -0.173376,0.62828 -0.38528,1.237912 l -0.38528,1.108421 0.111489,0.127305 c 0.06132,0.07002 0.137386,0.177383 0.169038,0.23859 0.03536,0.06837 0.09956,0.119833 0.166516,0.133454 0.16519,0.03361 0.456555,0.243448 0.574652,0.413862 0.206147,0.29747 0.263691,0.655034 0.160563,0.997701 -0.05214,0.173249 -0.05066,0.198677 0.0195,0.33622 0.04175,0.08184 0.07591,0.200338 0.07591,0.263332 v 0.114535 l 0.922666,0.299721 c 0.507467,0.164846 1.030707,0.333091 1.162757,0.373877 0.305014,0.09421 0.416893,0.209887 0.439793,0.45472 0.01561,0.166903 0.0054,0.198024 -0.09704,0.295303 -0.06692,0.06356 -0.169689,0.114532 -0.247354,0.122683 -0.09424,0.0099 -0.58003,-0.13782 -1.671108,-0.508128 z"
             style="fill:#e42781;fill-opacity:1;stroke-width:0.03900872" />
          <path
             inkscape:transform-center-y="3.7887555"
             inkscape:transform-center-x="-3.6868882"
             style="fill:#e3322c;fill-opacity:1;stroke-width:0.03900872"
             d="m 77.478031,69.803473 c 0.04045,-1.696548 0.05318,-1.791504 0.263688,-1.967402 0.06626,-0.05537 0.09146,-0.12038 0.08724,-0.225065 -0.01473,-0.36513 0.202252,-0.783045 0.509935,-0.98215 0.181886,-0.117699 0.488908,-0.201627 0.682705,-0.186625 0.161349,0.01249 0.183888,0.0054 0.326436,-0.102386 0.08422,-0.06369 0.203413,-0.131426 0.264878,-0.15053 0.06146,-0.01911 0.816437,-0.01646 1.677719,0.0059 1.36857,0.03549 1.584034,0.05121 1.709303,0.124707 0.123328,0.07236 0.147155,0.106342 0.170702,0.243456 0.03515,0.204674 -0.08264,0.418603 -0.261259,0.474514 -0.06797,0.02128 -0.651384,0.02223 -1.29648,0.0021 l -1.172903,-0.03657 -0.08819,0.144428 c -0.0485,0.07944 -0.128242,0.184102 -0.177199,0.232593 -0.05468,0.05417 -0.08462,0.130811 -0.07762,0.198779 0.01727,0.167688 -0.09595,0.508433 -0.2233,0.672045 -0.222305,0.285597 -0.546351,0.447328 -0.904179,0.451273 -0.180914,0.002 -0.204739,0.011 -0.315042,0.119048 -0.06563,0.06429 -0.168514,0.132291 -0.228632,0.151109 l -0.109305,0.03422 -0.01041,0.97007 c -0.0057,0.533539 -0.01,1.083147 -0.0095,1.221351 0.0012,0.31923 -0.07577,0.460556 -0.302577,0.555549 -0.154619,0.06476 -0.187369,0.06431 -0.310808,-0.0044 -0.08065,-0.04488 -0.159993,-0.127727 -0.190973,-0.199411 -0.0376,-0.08698 -0.04174,-0.594715 -0.01428,-1.746594 z"
             id="path1013"
             inkscape:connector-curvature="0" />
          <path
             inkscape:connector-curvature="0"
             id="path1015"
             d="m 72.446539,67.400645 c 1.635687,-0.45215 1.730265,-0.467439 1.959547,-0.316828 0.07217,0.04741 0.141693,0.05272 0.24068,0.01839 0.34525,-0.119745 0.808071,-0.03296 1.087683,0.203954 0.165291,0.140052 0.334461,0.409659 0.376173,0.599507 0.03473,0.158062 0.04804,0.177585 0.192456,0.28285 0.08533,0.06219 0.184659,0.156687 0.22073,0.209995 0.03607,0.0533 0.251979,0.776754 0.479774,1.607667 0.362003,1.320302 0.409296,1.531099 0.375187,1.672275 -0.03358,0.138989 -0.05922,0.171629 -0.183653,0.233841 -0.185749,0.09287 -0.424609,0.04201 -0.529809,-0.112791 -0.04004,-0.05891 -0.209747,-0.617092 -0.377127,-1.24042 l -0.304355,-1.133316 -0.163767,-0.04263 c -0.09007,-0.02344 -0.213332,-0.06949 -0.273914,-0.102323 -0.06767,-0.03667 -0.1497,-0.04315 -0.212735,-0.01679 -0.155519,0.06505 -0.514448,0.05526 -0.707909,-0.0193 -0.337702,-0.130163 -0.586273,-0.393555 -0.693581,-0.734936 -0.05426,-0.172598 -0.06977,-0.1928 -0.205109,-0.267123 -0.08053,-0.04422 -0.17539,-0.12303 -0.210797,-0.175132 l -0.06438,-0.09473 -0.93159,0.27071 c -0.512368,0.148915 -1.039712,0.303819 -1.17186,0.344285 -0.305229,0.09351 -0.46278,0.06073 -0.619333,-0.128896 -0.106727,-0.129268 -0.115772,-0.160747 -0.08572,-0.298787 0.01963,-0.09019 0.07597,-0.190105 0.135627,-0.240501 0.07238,-0.06116 0.557201,-0.212026 1.667757,-0.519019 z"
             style="fill:#84ba3b;fill-opacity:1;stroke-width:0.03900872"
             inkscape:transform-center-x="2.5997662"
             inkscape:transform-center-y="4.219863" />
          <path
             inkscape:transform-center-y="-0.94985703"
             inkscape:transform-center-x="4.1955336"
             style="fill:#336aa5;fill-opacity:1;stroke-width:0.03900872"
             d="m 72.769572,61.955104 c 0.956697,1.401658 1.001742,1.486213 0.933349,1.751875 -0.02153,0.08362 -0.0041,0.151128 0.06041,0.2337 0.224936,0.287993 0.292445,0.754016 0.158656,1.095207 -0.07909,0.201694 -0.279524,0.448945 -0.44569,0.549796 -0.138345,0.08397 -0.152516,0.102874 -0.205437,0.273567 -0.03126,0.100854 -0.08857,0.2254 -0.127353,0.276769 -0.03878,0.05137 -0.653571,0.489576 -1.366211,0.973778 -1.132356,0.769425 -1.316542,0.88233 -1.461163,0.895696 -0.142381,0.01316 -0.181558,-5.5e-4 -0.280659,-0.09819 -0.147936,-0.145747 -0.177033,-0.388223 -0.06456,-0.537821 0.0428,-0.05694 0.516138,-0.397993 1.051874,-0.75791 l 0.97405,-0.654419 -0.01261,-0.168755 c -0.0069,-0.09281 -0.0032,-0.224341 0.0083,-0.292285 0.01282,-0.07589 -0.0076,-0.15561 -0.05289,-0.206738 -0.111837,-0.126135 -0.218617,-0.468953 -0.210609,-0.67613 0.01399,-0.361648 0.182872,-0.682025 0.471225,-0.893941 0.145786,-0.107149 0.159889,-0.128357 0.186464,-0.280457 0.01581,-0.0905 0.05972,-0.205747 0.09757,-0.256097 l 0.06883,-0.09155 -0.557361,-0.794035 c -0.30657,-0.436705 -0.623649,-0.885646 -0.704667,-0.997614 -0.18717,-0.258604 -0.207088,-0.418291 -0.07826,-0.627744 0.08782,-0.142788 0.114684,-0.161525 0.255026,-0.177716 0.09169,-0.01058 0.204457,0.01043 0.271434,0.05059 0.08128,0.04872 0.380786,0.458726 1.030343,1.410385 z"
             id="path1017"
             inkscape:connector-curvature="0" />
          <path
             inkscape:connector-curvature="0"
             id="path1019"
             d="m 78.404646,60.722699 c -1.014133,1.360679 -1.079432,1.430783 -1.352892,1.452545 -0.08608,0.0068 -0.14424,0.04529 -0.201331,0.133159 -0.19914,0.306397 -0.617844,0.521855 -0.984,0.506352 -0.216453,-0.0092 -0.515463,-0.11825 -0.66489,-0.242563 -0.124412,-0.103499 -0.146898,-0.110748 -0.325522,-0.105254 -0.105537,0.0033 -0.241953,-0.01042 -0.303146,-0.03038 -0.06119,-0.01996 -0.67558,-0.458727 -1.365297,-0.975058 -1.095978,-0.820413 -1.262666,-0.957844 -1.322358,-1.090247 -0.05877,-0.130353 -0.05855,-0.171859 0.0015,-0.297336 0.08969,-0.187306 0.309503,-0.29371 0.487555,-0.236029 0.06777,0.02195 0.544266,0.358568 1.058904,0.748056 l 0.935724,0.708138 0.155471,-0.06683 c 0.08551,-0.03672 0.211094,-0.07602 0.279083,-0.08725 0.07593,-0.01257 0.144671,-0.05781 0.178282,-0.117276 0.08289,-0.14679 0.372311,-0.359297 0.570821,-0.419131 0.346523,-0.104434 0.704416,-0.04898 0.998619,0.154741 0.148751,0.102993 0.173393,0.109429 0.325864,0.08507 0.09072,-0.01449 0.213983,-0.01047 0.273908,0.0089 l 0.108963,0.0353 0.569495,-0.785378 c 0.313202,-0.431973 0.634555,-0.877865 0.714071,-0.990904 0.183638,-0.261124 0.328156,-0.331913 0.568128,-0.278241 0.163592,0.03659 0.19005,0.05589 0.251021,0.183331 0.03984,0.08326 0.05666,0.196726 0.04047,0.273125 -0.01963,0.09271 -0.309878,0.509317 -0.998425,1.433158 z"
             style="fill:#812c74;fill-opacity:1;stroke-width:0.03900872"
             inkscape:transform-center-x="0.80782563"
             inkscape:transform-center-y="-4.151498" />
        </g>
        <circle
           style="opacity:1;fill:#635b57;fill-opacity:1;fill-rule:evenodd;stroke:none;stroke-width:0.26458332;stroke-miterlimit:4;stroke-dasharray:none;stroke-dashoffset:0;stroke-opacity:1"
           id="path1040"
           cx="57.094685"
           cy="64.520012"
           r="1.2354637" />
        <circle
           r="1.2354637"
           cy="68.14183"
           cx="59.194973"
           id="circle1042"
           style="opacity:1;fill:#635b57;fill-opacity:1;fill-rule:evenodd;stroke:none;stroke-width:0.26458332;stroke-miterlimit:4;stroke-dasharray:none;stroke-dashoffset:0;stroke-opacity:1" />
        <circle
           r="1.1935451"
           cy="61.676235"
           cx="60.018616"
           id="circle1044"
           style="opacity:1;fill:#635b57;fill-opacity:1;fill-rule:evenodd;stroke:none;stroke-width:0.25560614;stroke-miterlimit:4;stroke-dasharray:none;stroke-dashoffset:0;stroke-opacity:1" />
        <circle
           style="opacity:1;fill:#635b57;fill-opacity:1;fill-rule:evenodd;stroke:none;stroke-width:0.26907191;stroke-miterlimit:4;stroke-dasharray:none;stroke-dashoffset:0;stroke-opacity:1"
           id="circle1046"
           cx="63.519096"
           cy="63.570614"
           r="1.2564231" />
        <circle
           r="1.2773824"
           cy="67.688828"
           cx="63.046608"
           id="circle1048"
           style="opacity:1;fill:#635b57;fill-opacity:1;fill-rule:evenodd;stroke:none;stroke-width:0.27356049;stroke-miterlimit:4;stroke-dasharray:none;stroke-dashoffset:0;stroke-opacity:1" />
      </g>
      <text
         id="text1109"
         y="74.705772"
         x="36.327274"
         style="font-style:normal;font-weight:normal;font-size:0.88560146px;line-height:125%;font-family:sans-serif;letter-spacing:0px;word-spacing:0px;fill:#635b57;fill-opacity:1;stroke:none;stroke-width:0.02214004px;stroke-linecap:butt;stroke-linejoin:miter;stroke-opacity:1"
         xml:space="preserve"><tspan
           style="fill:#635b57;fill-opacity:1;stroke-width:0.02214004px"
           y="74.705772"
           x="36.327274"
           id="tspan1107"
           sodipodi:role="line">TM</tspan></text>
    </g>
  </g>
</svg>
