<svg width="26" height="27" viewBox="0 0 26 27" fill="none" xmlns="http://www.w3.org/2000/svg">
<path fill-rule="evenodd" clip-rule="evenodd" d="M13 26C19.9036 26 25.5 20.4036 25.5 13.5C25.5 6.59644 19.9036 1 13 1C6.09644 1 0.5 6.59644 0.5 13.5C0.5 20.4036 6.09644 26 13 26Z" fill="#F7F7F8" stroke="#009456"/>
<path fill-rule="evenodd" clip-rule="evenodd" d="M13.0019 23.826C18.7048 23.826 23.328 19.2029 23.328 13.4999C23.328 7.79697 18.7048 3.17383 13.0019 3.17383C7.29893 3.17383 2.67578 7.79697 2.67578 13.4999C2.67578 19.2029 7.29893 23.826 13.0019 23.826Z" fill="#009456"/>
<path d="M8.1084 13.6314C8.1084 13.4598 8.17982 13.2948 8.31552 13.1628C8.59407 12.9053 9.05117 12.9053 9.32972 13.1628L11.501 15.1628L16.6679 10.4316C16.9464 10.1742 17.4036 10.1742 17.6821 10.4316C17.9606 10.689 17.9606 11.1115 17.6821 11.3689L12.0081 16.5688C11.8723 16.6943 11.6938 16.7603 11.501 16.7603C11.3081 16.7603 11.1296 16.6877 10.9939 16.5688L8.31552 14.1001C8.17982 13.9681 8.1084 13.7965 8.1084 13.6314Z" fill="white"/>
</svg>
